<?xml version="1.0" encoding="utf-8"?>
<!-- Uploaded to: SVG Repo, www.svgrepo.com, Generator: SVG Repo Mixer Tools -->
<svg fill="#000000" height="800px" width="800px" version="1.2" baseProfile="tiny" id="Layer_1" xmlns="http://www.w3.org/2000/svg" xmlns:xlink="http://www.w3.org/1999/xlink"
	  viewBox="-63 65 128 128" xml:space="preserve">
<path d="M49,154.5c-0.7-4-1.3-6.9-1.3-6.9c0-0.1-1-8.3-1-8.3v-38.2c0-1.3-0.4-2.4-0.6-3.6c-0.6-2.5-1.6-4.7-3.5-6.6L25.8,74.3
	l-0.9-0.9c-0.3,0-0.8,0.3-1.4,0.6c-1.5,0.9-3.3,2.7-3.3,2.7c0,1.3,8.8,10,8.8,10l-0.1,4l-0.2,10.8c0,5.2,4.3,9.5,9.5,9.5h2.4l0,0
	l0,0l-0.8,28.3l0.3,2.2l0.9,7.6l4.2,22.5l1.2,6.2c0.2,4.6-4.1,7.4-7.4,7.4c-1.5,0-3-0.6-4.2-1.6c-1.5-1-2.4-2.6-2.4-4.3v-13.3v-36.8
	c0-3-1.3-5.8-3.3-7.9c-2-2-4.7-3.3-7.9-3.3H10.6c0.3,0,0.4-4.5,0.5-10.5c0.2-10.3,0.2-25,0.2-29.4V77c0-6.2-4.8-11-10.8-11h-31.1
	c-6,0-10.8,4.8-10.8,10.8v114.7H9.4h1.9v-66.5h10.1c2.3,0,4.1,1.9,4.1,4.2v50c0,5,3.6,9.6,8.3,11.6c1.6,0.6,3.4,1,5.1,1
	c2.3,0,4.5-0.7,6.6-1.9c4.3-2.1,7.7-6,7.7-10.8C53.2,178.1,50.6,163.5,49,154.5z M39.8,106.4c-4-0.8-5.3-2.8-5.3-4.7v-6.8
	c0,0,2.6,0.6,3.3,0.7c1.3,0.3,2.1,2.3,2.1,4C39.8,101.4,39.8,106.4,39.8,106.4z M3.6,103c0,1.7-1.3,2.9-2.9,2.9h-31.3
	c-1.7,0-2.9-1.3-2.9-2.9V76.8c0-1.7,1.3-2.9,2.9-2.9H0.5c1.7,0,2.9,1.3,2.9,2.9V103H3.6z"/>
</svg>